<svg xmlns="http://www.w3.org/2000/svg" width="480" height="96" viewBox="0 0 480 96"><g fill="#FFF"><path d="M51.7 39.729v-4.134c0-.622.029-1.1.085-1.442a2.81 2.81 0 0 1 .394-1.005c.207-.33.534-.553.989-.684.457-.125 1.066-.189 1.824-.189h4.129V24h-6.61c-3.824 0-6.572.907-8.24 2.719-1.667 1.819-2.504 4.494-2.504 8.029v4.978h-4.951V48h4.95v24H51.7V48h6.609l.875-8.271H51.7zM168 33.143c-1.89.811-3.779 1.316-5.664 1.523 2.129-1.282 3.573-3.089 4.325-5.422a19.517 19.517 0 0 1-6.249 2.377c-1.947-2.072-4.343-3.113-7.188-3.113-2.725 0-5.039.959-6.965 2.876-1.911 1.921-2.874 4.241-2.874 6.958 0 .734.079 1.484.242 2.255-4.017-.205-7.784-1.213-11.314-3.03-3.52-1.816-6.511-4.24-8.964-7.263a9.637 9.637 0 0 0-1.344 4.964c0 1.688.395 3.247 1.189 4.689.793 1.442 1.852 2.607 3.203 3.501a9.769 9.769 0 0 1-4.451-1.248v.122c0 2.371.748 4.457 2.234 6.258 1.499 1.793 3.375 2.927 5.657 3.395-.855.217-1.722.335-2.591.335-.566 0-1.193-.05-1.856-.156.629 1.976 1.786 3.591 3.473 4.856 1.691 1.275 3.592 1.924 5.725 1.971-3.575 2.796-7.645 4.2-12.212 4.2-.875 0-1.667-.036-2.375-.129 4.566 2.953 9.603 4.43 15.1 4.43 3.5 0 6.776-.553 9.845-1.659 3.064-1.106 5.684-2.589 7.852-4.448a29.653 29.653 0 0 0 5.623-6.405c1.573-2.423 2.746-4.945 3.517-7.568.772-2.637 1.161-5.264 1.161-7.902 0-.573-.014-.997-.034-1.286A20.581 20.581 0 0 0 168 33.143zm75.614 21.421a17.793 17.793 0 0 0-1.688-1.911 30.545 30.545 0 0 0-1.846-1.598 51.67 51.67 0 0 1-1.691-1.373 7.821 7.821 0 0 1-1.241-1.397c-.311-.474-.473-.966-.473-1.461 0-.697.227-1.35.66-1.957.443-.596.98-1.184 1.615-1.76a29.1 29.1 0 0 0 1.901-1.856c.635-.677 1.175-1.565 1.615-2.668.444-1.104.67-2.368.67-3.795 0-1.689-.375-3.311-1.125-4.875-.76-1.552-1.816-2.768-3.177-3.633h3.891l3.908-2.28h-12.607c-1.785 0-3.587.19-5.393.582-2.673.593-4.923 1.952-6.75 4.08s-2.739 4.53-2.739 7.223c0 2.853 1.025 5.219 3.072 7.1 2.042 1.88 4.501 2.821 7.366 2.821.581 0 1.257-.05 2.025-.145-.042.157-.11.366-.203.625-.096.258-.172.468-.234.616a5.135 5.135 0 0 0-.143.563 3.774 3.774 0 0 0-.064.68c0 1.266.625 2.707 1.85 4.303a33.18 33.18 0 0 0-4.32.384 32.758 32.758 0 0 0-4.473 1.036 13.82 13.82 0 0 0-4.188 2.052c-1.225.896-2.146 1.964-2.77 3.188-.708 1.418-1.061 2.725-1.061 3.896 0 1.297.285 2.445.867 3.508a7.88 7.88 0 0 0 2.223 2.568c.897.66 1.945 1.223 3.125 1.658 1.178.46 2.349.785 3.517.976 1.167.19 2.315.284 3.446.284 5.156 0 9.191-1.261 12.116-3.785 2.695-2.344 4.037-5.037 4.037-8.122 0-1.111-.152-2.119-.476-3.083a8.57 8.57 0 0 0-1.242-2.444zm-11.116-10.481a5.65 5.65 0 0 1-2.805-.75 7.598 7.598 0 0 1-2.249-1.948 14.292 14.292 0 0 1-1.617-2.705 14.93 14.93 0 0 1-1.018-2.991 13.004 13.004 0 0 1-.331-2.856c0-1.849.483-3.438 1.465-4.76.983-1.332 2.366-1.988 4.161-1.988 1.27 0 2.416.394 3.446 1.175a8.156 8.156 0 0 1 2.418 3.001 19.116 19.116 0 0 1 1.359 3.767c.311 1.294.471 2.52.471 3.682 0 1.921-.419 3.468-1.25 4.625-.835 1.166-2.192 1.748-4.05 1.748zm7.973 21.649a5.653 5.653 0 0 1-2.156 2.138c-.897.515-1.871.888-2.891 1.128-1.031.239-2.121.344-3.25.344a16.08 16.08 0 0 1-3.661-.427 14.416 14.416 0 0 1-3.484-1.316 7.153 7.153 0 0 1-2.68-2.43c-.683-1.029-1.025-2.178-1.025-3.491 0-1.158.258-2.188.786-3.089.518-.896 1.177-1.632 1.992-2.157.803-.548 1.743-.982 2.821-1.344a18.763 18.763 0 0 1 3.117-.713 22.55 22.55 0 0 1 3.065-.195c.634 0 1.109.012 1.437.053.116.061.405.277.884.609.469.322.783.551.943.656.165.103.465.334.894.656.438.328.746.568.928.744.187.155.447.396.797.743.337.31.595.591.758.847.164.236.369.527.607.864.239.356.404.688.509 1.008.094.308.188.661.267 1.036.09.375.132.759.132 1.168.006 1.223-.256 2.273-.79 3.168z"/><path d="M256.615 31.383V24h-3.698v7.383h-7.382v3.698h7.382v7.385h3.698v-7.385H264v-3.698zm160.116 26.148c-1.591 0-2.946.579-4.052 1.682-1.128 1.125-1.677 2.466-1.677 4.054 0 1.59.546 2.947 1.677 4.055 1.105 1.125 2.466 1.673 4.052 1.673 1.595 0 2.932-.548 4.053-1.673 1.107-1.107 1.662-2.467 1.662-4.055 0-1.591-.555-2.932-1.662-4.054-1.121-1.104-2.457-1.682-4.053-1.682zm13.177-7.441a26.073 26.073 0 0 0-7.737-5.417 26.395 26.395 0 0 0-9.113-2.397h-.146c-.507 0-.95.166-1.278.502a1.775 1.775 0 0 0-.632 1.397v4.039c0 .499.172.917.496 1.281.322.358.734.551 1.231.595 4.555.425 8.438 2.277 11.672 5.504 3.226 3.234 5.061 7.118 5.507 11.674.041.498.233.908.593 1.23.363.328.78.497 1.282.497h4.038c.565 0 1.046-.218 1.388-.628.396-.408.545-.871.526-1.427a26.953 26.953 0 0 0-2.406-9.114c-1.355-2.91-3.146-5.497-5.421-7.736z"/><path d="M449.416 52.045a42.11 42.11 0 0 0-8.764-12.701c-3.717-3.715-7.926-6.639-12.698-8.759A41.42 41.42 0 0 0 413 26.997h-.09c-.509 0-.955.184-1.316.541-.406.362-.594.82-.594 1.37v4.266c0 .496.175.932.51 1.296.354.367.772.566 1.272.588a33.7 33.7 0 0 1 12.196 3.048c3.838 1.763 7.178 4.064 10.026 6.903 2.828 2.83 5.118 6.176 6.896 10.016a33.205 33.205 0 0 1 3.008 12.198c.033.498.218.914.586 1.271.362.331.813.507 1.324.507h4.275c.545 0 1.005-.186 1.363-.589.408-.407.562-.865.541-1.409a41.176 41.176 0 0 0-3.581-14.958zm-93.344-13.214c.517-1.563.786-3.18.786-4.849 0-2.229-.5-4.332-1.484-6.287-2.059 0-3.864.364-5.446 1.125-1.586.742-3.375 1.91-5.392 3.494-2.537-.622-5.231-.93-8.083-.93-3.114 0-6.078.343-8.909 1.01-2.06-1.616-3.871-2.8-5.445-3.563-1.585-.757-3.41-1.136-5.481-1.136a13.843 13.843 0 0 0-1.475 6.287c0 1.69.26 3.328.775 4.902-2.62 3.064-3.918 6.866-3.918 11.422 0 3.988.594 7.176 1.786 9.552a11.892 11.892 0 0 0 2.481 3.319 13.058 13.058 0 0 0 3.492 2.344 32.182 32.182 0 0 0 3.943 1.471c1.337.407 2.805.691 4.403.872 1.612.186 3.026.3 4.261.35 1.225.07 2.588.091 4.088.091 1.775 0 3.375-.045 4.834-.135a44.95 44.95 0 0 0 4.935-.627c1.862-.336 3.481-.795 4.909-1.366a15.7 15.7 0 0 0 4.054-2.48 11.573 11.573 0 0 0 3.05-3.841c1.169-2.388 1.764-5.569 1.764-9.554-.001-4.571-1.308-8.396-3.928-11.471zm-3.464 20.984c-.609 1.259-1.384 2.249-2.343 2.963-.938.731-2.111 1.307-3.516 1.734-1.408.445-2.74.729-4.036.844a39.345 39.345 0 0 1-4.296.216h-4.848c-1.574 0-3.006-.074-4.295-.216-1.289-.116-2.642-.401-4.042-.844-1.407-.427-2.581-1.003-3.521-1.734-.941-.715-1.714-1.704-2.329-2.963-.623-1.263-.93-2.729-.93-4.419 0-2.32.658-4.287 1.993-5.895 1.331-1.615 3.122-2.419 5.394-2.419.832 0 2.709.196 5.622.6 1.375.22 2.884.32 4.539.32 1.647 0 3.163-.1 4.526-.32 2.968-.403 4.843-.6 5.617-.6 2.276 0 4.069.804 5.41 2.419 1.325 1.605 1.981 3.575 1.981 5.895.002 1.69-.313 3.156-.926 4.419z"/><path d="M328.856 50.824c-.585-.658-1.286-.984-2.091-.984-.814 0-1.5.326-2.085.984a5.69 5.69 0 0 0-1.247 2.199 7.985 7.985 0 0 0-.365 2.373c0 .759.117 1.55.365 2.355a5.69 5.69 0 0 0 1.247 2.195c.585.652 1.271.979 2.085.979.805 0 1.502-.327 2.091-.979a5.602 5.602 0 0 0 1.239-2.195 8.222 8.222 0 0 0 .357-2.355c0-.782-.116-1.57-.357-2.373a5.582 5.582 0 0 0-1.239-2.199zm18.455 0c-.577-.658-1.271-.984-2.072-.984-.807 0-1.509.326-2.104.984a5.725 5.725 0 0 0-1.229 2.199 8.318 8.318 0 0 0-.363 2.373c0 .759.125 1.55.363 2.355a5.724 5.724 0 0 0 1.229 2.195c.592.652 1.297.979 2.104.979.801 0 1.497-.327 2.072-.979a5.605 5.605 0 0 0 1.256-2.195 8.318 8.318 0 0 0 0-4.728 5.622 5.622 0 0 0-1.256-2.199z"/></g></svg>